<svg width="100" height="100" viewBox="0 0 100 100" fill="none" xmlns="http://www.w3.org/2000/svg">
<g clip-path="url(#clip0_42_3)">
<rect x="4.5" y="4.5" width="91" height="91" rx="1.5" fill="#EDDECA" stroke="#2C2419" stroke-width="3"/>
<path d="M52.4414 80.3105C52.181 66.7038 52.0508 56.4336 52.0508 49.5C52.0508 41.4922 52.2135 32.3939 52.5391 22.2051C52.6042 19.7311 58.0404 18.1686 68.8477 17.5176C69.043 16.8991 69.043 16.1341 68.8477 15.2227C60.319 15.4831 53.6621 15.6133 48.877 15.6133C44.873 15.6133 39.1927 15.4831 31.8359 15.2227C31.5755 15.8086 31.5755 16.5736 31.8359 17.5176C39.3229 18.2337 43.099 19.7962 43.1641 22.2051C43.4896 29.8548 43.6523 38.9531 43.6523 49.5C43.6523 59.819 43.457 70.0892 43.0664 80.3105C43.0013 82.7194 39.2253 84.2819 31.7383 84.998C31.4779 85.5189 31.4779 86.2839 31.7383 87.293C37.2721 87.0977 42.9525 87 48.7793 87C55.7129 87 62.3698 87.0977 68.75 87.293C69.0104 86.7721 69.0104 86.0072 68.75 84.998C57.9427 84.347 52.5065 82.7845 52.4414 80.3105ZM30.2734 19.4219C29.7201 17.2734 29.7852 15.1738 30.4688 13.123C33.3333 13.123 37.207 13.2044 42.0898 13.3672C47.0052 13.5299 50.4232 13.6113 52.3438 13.6113C53.7435 13.6113 56.4453 13.5788 60.4492 13.5137C64.4531 13.4486 67.9199 13.416 70.8496 13.416C71.4681 15.2715 71.5007 17.2734 70.9473 19.4219C63.7533 20.138 60.1237 21.0983 60.0586 22.3027C59.668 30.4408 59.4727 40.7109 59.4727 53.1133C59.4727 65.0924 59.6354 74.1257 59.9609 80.2129C59.9609 80.4082 60.0423 80.6035 60.2051 80.7988C60.3678 80.9941 60.5957 81.1569 60.8887 81.2871C61.2142 81.4173 61.5397 81.5638 61.8652 81.7266C62.1908 81.8568 62.6302 81.987 63.1836 82.1172C63.7695 82.2474 64.2578 82.3613 64.6484 82.459C65.0391 82.5566 65.5599 82.6543 66.2109 82.752C66.8945 82.8496 67.4316 82.931 67.8223 82.9961C68.2454 83.0612 68.7988 83.1263 69.4824 83.1914C70.1986 83.2565 70.6868 83.3216 70.9473 83.3867C71.5007 85.2096 71.403 87.2116 70.6543 89.3926C58.6426 89.1322 51.3509 89.002 48.7793 89.002C47.0215 89.002 40.8854 89.1322 30.3711 89.3926C29.5573 87.1465 29.5573 85.0469 30.3711 83.0938C37.4349 82.3776 40.9993 81.4173 41.0645 80.2129C41.4551 72.0749 41.6504 61.8372 41.6504 49.5C41.6504 39.0182 41.4876 29.9525 41.1621 22.3027C41.097 21.0983 37.4674 20.138 30.2734 19.4219Z" fill="#2C2419"/>
</g>
<defs>
<clipPath id="clip0_42_3">
<rect width="100" height="100" fill="white"/>
</clipPath>
</defs>
</svg>
